<svg xmlns="http://www.w3.org/2000/svg" width="800" height="1150" viewBox="0 0 800 1150">
  <rect width="800" height="1150" fill="white" />
  <text x="400   " y="30" font-size="24" text-anchor="middle" fill="black">Top-Down Parse Tree</text>
  <g transform="translate(0, 70)">
    <line x1="400" y1="0" x2="200" y2="150" stroke="#ccc" stroke-width="2" />
    <line x1="200" y1="150" x2="150" y2="300" stroke="#ccc" stroke-width="2" />
    <line x1="150" y1="300" x2="150" y2="450" stroke="#ccc" stroke-width="2" />
    <line x1="150" y1="450" x2="150" y2="600" stroke="#ccc" stroke-width="2" />
    <circle cx="150" cy="600" r="20" fill="#4285f4" stroke="#fff" stroke-width="2" />
    <text x="150" y="604" font-size="12" text-anchor="middle" fill="#fff">a</text>
    <circle cx="150" cy="450" r="20" fill="#4285f4" stroke="#fff" stroke-width="2" />
    <text x="150" y="454" font-size="12" text-anchor="middle" fill="#fff">id</text>
    <circle cx="150" cy="300" r="20" fill="#4285f4" stroke="#fff" stroke-width="2" />
    <text x="150" y="304" font-size="12" text-anchor="middle" fill="#fff">F</text>
    <line x1="200" y1="150" x2="250" y2="300" stroke="#ccc" stroke-width="2" />
    <line x1="250" y1="300" x2="250" y2="450" stroke="#ccc" stroke-width="2" />
    <circle cx="250" cy="450" r="20" fill="#4285f4" stroke="#fff" stroke-width="2" />
    <text x="250" y="454" font-size="12" text-anchor="middle" fill="#fff">ε</text>
    <circle cx="250" cy="300" r="20" fill="#4285f4" stroke="#fff" stroke-width="2" />
    <text x="250" y="304" font-size="12" text-anchor="middle" fill="#fff">T'</text>
    <circle cx="200" cy="150" r="20" fill="#4285f4" stroke="#fff" stroke-width="2" />
    <text x="200" y="154" font-size="12" text-anchor="middle" fill="#fff">T</text>
    <line x1="400" y1="0" x2="500" y2="150" stroke="#ccc" stroke-width="2" />
    <line x1="500" y1="150" x2="350" y2="300" stroke="#ccc" stroke-width="2" />
    <circle cx="350" cy="300" r="20" fill="#4285f4" stroke="#fff" stroke-width="2" />
    <text x="350" y="304" font-size="12" text-anchor="middle" fill="#fff">+</text>
    <line x1="500" y1="150" x2="500" y2="300" stroke="#ccc" stroke-width="2" />
    <line x1="500" y1="300" x2="450" y2="450" stroke="#ccc" stroke-width="2" />
    <line x1="450" y1="450" x2="450" y2="600" stroke="#ccc" stroke-width="2" />
    <line x1="450" y1="600" x2="450" y2="750" stroke="#ccc" stroke-width="2" />
    <circle cx="450" cy="750" r="20" fill="#4285f4" stroke="#fff" stroke-width="2" />
    <text x="450" y="754" font-size="12" text-anchor="middle" fill="#fff">b</text>
    <circle cx="450" cy="600" r="20" fill="#4285f4" stroke="#fff" stroke-width="2" />
    <text x="450" y="604" font-size="12" text-anchor="middle" fill="#fff">id</text>
    <circle cx="450" cy="450" r="20" fill="#4285f4" stroke="#fff" stroke-width="2" />
    <text x="450" y="454" font-size="12" text-anchor="middle" fill="#fff">F</text>
    <line x1="500" y1="300" x2="550" y2="450" stroke="#ccc" stroke-width="2" />
    <line x1="550" y1="450" x2="550" y2="600" stroke="#ccc" stroke-width="2" />
    <circle cx="550" cy="600" r="20" fill="#4285f4" stroke="#fff" stroke-width="2" />
    <text x="550" y="604" font-size="12" text-anchor="middle" fill="#fff">ε</text>
    <circle cx="550" cy="450" r="20" fill="#4285f4" stroke="#fff" stroke-width="2" />
    <text x="550" y="454" font-size="12" text-anchor="middle" fill="#fff">T'</text>
    <circle cx="500" cy="300" r="20" fill="#4285f4" stroke="#fff" stroke-width="2" />
    <text x="500" y="304" font-size="12" text-anchor="middle" fill="#fff">T</text>
    <line x1="500" y1="150" x2="650" y2="300" stroke="#ccc" stroke-width="2" />
    <line x1="650" y1="300" x2="650" y2="450" stroke="#ccc" stroke-width="2" />
    <circle cx="650" cy="450" r="20" fill="#4285f4" stroke="#fff" stroke-width="2" />
    <text x="650" y="454" font-size="12" text-anchor="middle" fill="#fff">ε</text>
    <circle cx="650" cy="300" r="20" fill="#4285f4" stroke="#fff" stroke-width="2" />
    <text x="650" y="304" font-size="12" text-anchor="middle" fill="#fff">E'</text>
    <circle cx="500" cy="150" r="20" fill="#4285f4" stroke="#fff" stroke-width="2" />
    <text x="500" y="154" font-size="12" text-anchor="middle" fill="#fff">E'</text>
    <circle cx="400" cy="0" r="20" fill="#4285f4" stroke="#fff" stroke-width="2" />
    <text x="400" y="4" font-size="12" text-anchor="middle" fill="#fff">E</text>
  </g>
</svg>
